<?xml version="1.0" encoding="UTF-8" standalone="no"?>
<!-- Created with Inkscape (http://www.inkscape.org/) -->

<svg
   xmlns:dc="http://purl.org/dc/elements/1.1/"
   xmlns:cc="http://creativecommons.org/ns#"
   xmlns:rdf="http://www.w3.org/1999/02/22-rdf-syntax-ns#"
   xmlns:svg="http://www.w3.org/2000/svg"
   xmlns="http://www.w3.org/2000/svg"
   xmlns:sodipodi="http://sodipodi.sourceforge.net/DTD/sodipodi-0.dtd"
   xmlns:inkscape="http://www.inkscape.org/namespaces/inkscape"
   width="210mm"
   height="297mm"
   viewBox="0 0 210 297"
   version="1.1"
   id="svg105"
   inkscape:version="0.92.2 (5c3e80d, 2017-08-06)"
   sodipodi:docname="icons.svg">
  <defs
     id="defs99" />
  <sodipodi:namedview
     id="base"
     pagecolor="#ffffff"
     bordercolor="#666666"
     borderopacity="1.0"
     inkscape:pageopacity="0.0"
     inkscape:pageshadow="2"
     inkscape:zoom="0.12374369"
     inkscape:cx="-506.77531"
     inkscape:cy="1161.1297"
     inkscape:document-units="mm"
     inkscape:current-layer="layer1"
     showgrid="false"
     inkscape:window-width="1612"
     inkscape:window-height="1027"
     inkscape:window-x="1672"
     inkscape:window-y="-8"
     inkscape:window-maximized="1" />
  <metadata
     id="metadata102">
    <rdf:RDF>
      <cc:Work
         rdf:about="">
        <dc:format>image/svg+xml</dc:format>
        <dc:type
           rdf:resource="http://purl.org/dc/dcmitype/StillImage" />
        <dc:title></dc:title>
      </cc:Work>
    </rdf:RDF>
  </metadata>
  <g
     inkscape:label="Calque 1"
     inkscape:groupmode="layer"
     id="layer1">
    <path
       style="fill:#000000;stroke-width:0.23394389"
       id="path85-2"
       d="m -11.857491,-374.69557 c -34.01121,-3.47243 -68.2226,-3.97855 -102.362899,-4.81622 -53.1164,-1.37279 -25.5788,-0.77293 -82.61392,-1.74839 0,0 7.87662,-5.94127 7.87662,-5.94127 v 0 c 60.22758,-1.27679 31.04049,-0.61167 87.56179,-1.97873 38.400009,-0.88463 76.837699,-1.61062 115.139489,-4.81622 0,0 -25.60108,19.30083 -25.60108,19.30083 z"
       inkscape:connector-curvature="0"
       inkscape:export-filename="C:\Users\pinced\Desktop\maximize.png"
       inkscape:export-xdpi="5.6625252"
       inkscape:export-ydpi="5.6625252" />
    <path
       style="fill:#000000;stroke-width:0.23394389"
       id="path85-8-5"
       d="m -7.716891,-551.87086 c -34.01132,-3.47241 -68.2226,-3.97853 -102.363219,-4.81617 -53.11608,-1.37282 -25.57859,-0.77293 -82.61361,-1.74839 0,0 7.87652,-5.94124 7.87652,-5.94124 v 0 c 60.22771,-1.27677 31.0406,-0.61168 87.561599,-1.97874 38.4002,-0.8846 76.83799,-1.61059 115.13979,-4.81619 0,0 -25.60108,19.30073 -25.60108,19.30073 z"
       inkscape:connector-curvature="0"
       inkscape:export-filename="C:\Users\pinced\Desktop\maximize.png"
       inkscape:export-xdpi="5.6625252"
       inkscape:export-ydpi="5.6625252" />
    <path
       style="fill:#000000;stroke-width:0.23394389"
       id="path85-8-8-7"
       d="m -196.83431,-381.26018 c 3.8772,-35.2333 4.89931,-70.72078 6.23972,-106.12922 2.15249,-55.08813 1.1443,-26.52651 2.97497,-85.68665 0,0 5.60211,8.26499 5.60211,8.26499 v 0 c 0.2894,62.50769 0.10371,32.21491 0.5389,90.87839 0.25299,39.85498 0.3519,79.74651 2.84271,119.53606 0,0 -18.19841,-26.86357 -18.19841,-26.86357 z"
       inkscape:connector-curvature="0"
       inkscape:export-filename="C:\Users\pinced\Desktop\maximize.png"
       inkscape:export-xdpi="5.6625252"
       inkscape:export-ydpi="5.6625252" />
    <path
       style="fill:#000000;stroke-width:0.23394389"
       id="path85-8-8-1-0"
       d="m -11.857491,-374.69557 c 3.87718,-35.23335 4.89908,-70.72083 6.2397,-106.12927 2.1523,-55.0881 1.14429,-26.52651 2.975,-85.68665 0,0 5.60189,8.265 5.60189,8.265 v 0 c 0.28969,62.50768 0.10369,32.2149 0.53909,90.87839 0.25302,39.85498 0.35171,79.74656 2.84252,119.53612 0,0 -18.1982,-26.86359 -18.1982,-26.86359 z"
       inkscape:connector-curvature="0"
       inkscape:export-filename="C:\Users\pinced\Desktop\maximize.png"
       inkscape:export-xdpi="5.6625252"
       inkscape:export-ydpi="5.6625252" />
    <path
       style="fill:#000000;stroke-width:0.26458332"
       id="path85-8-2-7"
       d="m -433.94911,-121.2811 c -30.2397,25.213758 -58.29469,52.902748 -86.55449,80.275088 -44.0222,42.5323196 -21.2878,20.39474 -68.1635,66.45341 0,0 1.66709,-11.09401 1.66709,-11.09401 v 0 c 47.67451,-50.43384 24.6075,-25.95684 69.2145,-73.41841 30.3407,-32.21072 60.83731,-64.328728 89.2625,-98.266958 0,0 -5.4261,36.05088 -5.4261,36.05088 z"
       inkscape:connector-curvature="0"
       inkscape:export-filename="C:\Users\pinced\Desktop\close.png"
       inkscape:export-xdpi="17.787561"
       inkscape:export-ydpi="17.787561" />
    <path
       style="fill:#000000;stroke-width:0.26458332"
       id="path85-8-8-1-3-9"
       d="m -452.9573,7.6583676 c -24.73841,-30.6297496 -51.98592,-59.1138396 -78.9136,-87.7977096 -41.83941,-44.681198 -20.05962,-21.603838 -65.3806,-69.193068 0,0 11.0667,1.84004 11.0667,1.84004 v 0 c 49.68298,48.456508 25.56931,25.00993 72.3284,70.352768 31.73289,30.84015 63.3707,61.83465 96.86079,90.78647 0,0 -35.96169,-5.9885004 -35.96169,-5.9885004 z"
       inkscape:connector-curvature="0"
       inkscape:export-filename="C:\Users\pinced\Desktop\close.png"
       inkscape:export-xdpi="17.787561"
       inkscape:export-ydpi="17.787561" />
    <path
       style="fill:#000000;stroke-width:0.23394389"
       id="path85-2-9"
       d="m 49.500709,-432.88317 c -34.01121,-3.47243 -68.2226,-3.97855 -102.3629,-4.81622 -53.116399,-1.37279 -25.57881,-0.77293 -82.613919,-1.74839 0,0 7.87661,-5.94127 7.87661,-5.94127 v 0 c 60.227609,-1.27679 31.040499,-0.61167 87.561799,-1.97873 38.40001,-0.88463 76.83769,-1.61062 115.13949,-4.81622 0,0 -25.60108,19.30083 -25.60108,19.30083 z"
       inkscape:connector-curvature="0"
       inkscape:export-filename="C:\Users\pinced\Desktop\maximize.png"
       inkscape:export-xdpi="5.6625252"
       inkscape:export-ydpi="5.6625252" />
    <path
       style="fill:#000000;stroke-width:0.23394389"
       id="path85-8-5-6"
       d="m 53.641309,-610.05846 c -34.01132,-3.47241 -68.22261,-3.97853 -102.36322,-4.81617 -53.116089,-1.37282 -25.5786,-0.77293 -82.613579,-1.74839 0,0 7.87649,-5.94124 7.87649,-5.94124 v 0 c 60.227709,-1.27677 31.040589,-0.61168 87.561599,-1.97874 38.4002,-0.8846 76.83799,-1.61059 115.13979,-4.81619 0,0 -25.60108,19.30073 -25.60108,19.30073 z"
       inkscape:connector-curvature="0"
       inkscape:export-filename="C:\Users\pinced\Desktop\maximize.png"
       inkscape:export-xdpi="5.6625252"
       inkscape:export-ydpi="5.6625252" />
    <path
       style="fill:#000000;stroke-width:0.23394389"
       id="path85-8-8-7-9"
       d="m -135.47611,-439.44778 c 3.8772,-35.2333 4.89931,-70.72078 6.23972,-106.12922 2.15249,-55.08813 1.14429,-26.52651 2.975,-85.68665 0,0 5.6021,8.26499 5.6021,8.26499 v 0 c 0.28938,62.50769 0.10369,32.21491 0.53888,90.87839 0.25302,39.85498 0.35192,79.74651 2.84271,119.53606 0,0 -18.19841,-26.86357 -18.19841,-26.86357 z"
       inkscape:connector-curvature="0"
       inkscape:export-filename="C:\Users\pinced\Desktop\maximize.png"
       inkscape:export-xdpi="5.6625252"
       inkscape:export-ydpi="5.6625252" />
    <path
       style="fill:#000000;stroke-width:0.23394389"
       id="path85-8-8-1-0-4"
       d="m 49.500709,-432.88317 c 3.8772,-35.23335 4.8991,-70.72083 6.23969,-106.12927 2.15231,-55.0881 1.1443,-26.52651 2.975,-85.68665 0,0 5.6019,8.265 5.6019,8.265 v 0 c 0.28969,62.50768 0.10371,32.2149 0.53911,90.87839 0.253,39.85498 0.35168,79.74656 2.8425,119.53611 0,0 -18.1982,-26.86358 -18.1982,-26.86358 z"
       inkscape:connector-curvature="0"
       inkscape:export-filename="C:\Users\pinced\Desktop\maximize.png"
       inkscape:export-xdpi="5.6625252"
       inkscape:export-ydpi="5.6625252" />
    <path
       style="fill:#000000;stroke-width:0.23394389"
       id="path85-2-3"
       d="m 182.10282,41.048498 c -34.0112,-3.47244 -68.22261,-3.97857 -102.362911,-4.81621 -53.1164,-1.37279 -25.5788,-0.77295 -82.61392,-1.74839 0,0 7.87662,-5.94128 7.87662,-5.94128 v 0 c 60.22758,-1.27679 31.04049,-0.61169 87.56179,-1.97873 38.400011,-0.88464 76.837721,-1.61063 115.139521,-4.81621 0,0 -25.6011,19.30082 -25.6011,19.30082 z"
       inkscape:connector-curvature="0"
       inkscape:export-filename="C:\Users\pinced\Desktop\minimize.png"
       inkscape:export-xdpi="5.6625252"
       inkscape:export-ydpi="5.6625252" />
    <path
       style="fill:#000000;stroke-width:0.23394389"
       id="path85-8-5-7"
       d="m 186.24342,-136.12679 c -34.0113,-3.47242 -68.22261,-3.97854 -102.363231,-4.81619 -53.11608,-1.37281 -25.57859,-0.77292 -82.61358,-1.74836 0,0 7.87649,-5.94125 7.87649,-5.94125 v 0 c 60.22771,-1.27677 31.0406,-0.61169 87.5616,-1.97874 38.400221,-0.88461 76.838021,-1.6106 115.139821,-4.81621 0,0 -25.6011,19.30075 -25.6011,19.30075 z"
       inkscape:connector-curvature="0"
       inkscape:export-filename="C:\Users\pinced\Desktop\minimize.png"
       inkscape:export-xdpi="5.6625252"
       inkscape:export-ydpi="5.6625252" />
    <path
       style="fill:#000000;stroke-width:0.23394389"
       id="path85-8-8-7-03"
       d="m -2.874011,34.483898 c 3.8772,-35.23332038 4.89931,-70.7208 6.23972,-106.12925 2.15249,-55.088128 1.1443,-26.52649 2.975,-85.686628 0,0 5.60208,8.26497 5.60208,8.26497 v 0 c 0.2894,62.507708 0.10371,32.21493 0.5389,90.878398 0.25302,39.85498 0.35192,79.74653 2.84271,119.53608 0,0 -18.19841,-26.86357 -18.19841,-26.86357 z"
       inkscape:connector-curvature="0"
       inkscape:export-filename="C:\Users\pinced\Desktop\minimize.png"
       inkscape:export-xdpi="5.6625252"
       inkscape:export-ydpi="5.6625252" />
    <path
       style="fill:#000000;stroke-width:0.23394389"
       id="path85-8-8-1-0-6"
       d="m 182.10282,41.048498 c 3.8772,-35.2333504 4.8991,-70.72082 6.2397,-106.12927 2.1523,-55.088098 1.1443,-26.52652 2.975,-85.686658 0,0 5.6019,8.265 5.6019,8.265 v 0 c 0.2897,62.507678 0.1037,32.2149 0.5391,90.878398 0.253,39.85498 0.3517,79.74655 2.8425,119.5361 0,0 -18.1982,-26.86357 -18.1982,-26.86357 z"
       inkscape:connector-curvature="0"
       inkscape:export-filename="C:\Users\pinced\Desktop\minimize.png"
       inkscape:export-xdpi="5.6625252"
       inkscape:export-ydpi="5.6625252" />
    <path
       style="fill:#000000;stroke-width:0.26458332"
       id="path85-8-2-2"
       d="m -653.39421,398.25175 c -39.18295,-3.8552 -78.59683,-4.4172 -117.92873,-5.3472 -61.19336,-1.5241 -29.4683,-0.8581 -95.17634,-1.9411 0,0 9.07437,-6.5963 9.07437,-6.5963 v 0 c 69.38606,-1.4176 35.76067,-0.6792 100.87658,-2.197 44.23945,-0.9821 88.52216,-1.7881 132.64842,-5.3472 0,0 -29.4943,21.4288 -29.4943,21.4288 z"
       inkscape:connector-curvature="0"
       inkscape:export-filename="D:\devel\libs\tnkQt\widgets\res\minimize.png"
       inkscape:export-xdpi="5"
       inkscape:export-ydpi="5" />
  </g>
</svg>
